<svg width="17" height="17" viewBox="0 0 17 17" fill="none" xmlns="http://www.w3.org/2000/svg">
<g clip-path="url(#clip0_15_4226)">
<path d="M9.96871 2.75215C10.4966 2.18027 10.7605 1.89433 11.0409 1.72753C11.7176 1.32508 12.5509 1.31256 13.2389 1.69452C13.524 1.85282 13.796 2.13071 14.34 2.6865C14.8841 3.24228 15.1562 3.52018 15.3111 3.81145C15.685 4.51425 15.6728 5.36544 15.2788 6.05671C15.1155 6.3432 14.8356 6.6128 14.2758 7.152L7.61485 13.5676C6.55396 14.5894 6.0235 15.1004 5.36055 15.3592C4.69759 15.6182 3.96877 15.5992 2.51113 15.5611L2.31282 15.5559C1.86907 15.5443 1.64719 15.5385 1.51821 15.392C1.38923 15.2457 1.40684 15.0197 1.44206 14.5677L1.46119 14.3222C1.5603 13.0499 1.60986 12.4139 1.8583 11.842C2.10673 11.2702 2.53527 10.8059 3.39235 9.87731L9.96871 2.75215Z" stroke="white" stroke-width="1.5" stroke-linejoin="round"/>
<path d="M9.2085 2.83337L14.1668 7.79171" stroke="white" stroke-width="1.5" stroke-linejoin="round"/>
<path opacity="0.4" d="M9.9165 15.5834H15.5832" stroke="white" stroke-width="1.5" stroke-linecap="round" stroke-linejoin="round"/>
</g>
<defs>
<clipPath id="clip0_15_4226">
<rect width="17" height="17" fill="white"/>
</clipPath>
</defs>
</svg>
