<svg width="22" height="22" viewBox="0 0 22 22" fill="none" xmlns="http://www.w3.org/2000/svg">
<path opacity="0.4" d="M19.0428 16.5C19.7297 16.5 20.276 16.0678 20.7666 15.4633C21.7707 14.2261 20.122 13.2374 19.4933 12.7532C18.854 12.261 18.1403 11.9821 17.4167 11.9167M16.5 10.0833C17.7656 10.0833 18.7917 9.05732 18.7917 7.79167C18.7917 6.52602 17.7656 5.5 16.5 5.5" stroke="white" stroke-linecap="round"/>
<path opacity="0.4" d="M2.95697 16.5C2.27011 16.5 1.72378 16.0678 1.23326 15.4633C0.229084 14.2261 1.87778 13.2374 2.5066 12.7532C3.14581 12.261 3.85953 11.9821 4.58317 11.9167M5.0415 10.0833C3.77585 10.0833 2.74984 9.05732 2.74984 7.79167C2.74984 6.52602 3.77585 5.5 5.0415 5.5" stroke="white" stroke-linecap="round"/>
<path d="M7.40999 13.8519C6.47336 14.4311 4.01758 15.6137 5.51331 17.0934C6.24397 17.8163 7.05773 18.3333 8.08083 18.3333H13.9189C14.942 18.3333 15.7557 17.8163 16.4864 17.0934C17.9821 15.6137 15.5263 14.4311 14.5897 13.8519C12.3933 12.4938 9.60641 12.4938 7.40999 13.8519Z" stroke="white" stroke-linecap="round" stroke-linejoin="round"/>
<path d="M14.2082 6.87502C14.2082 8.64694 12.7718 10.0834 10.9998 10.0834C9.22792 10.0834 7.7915 8.64694 7.7915 6.87502C7.7915 5.1031 9.22792 3.66669 10.9998 3.66669C12.7718 3.66669 14.2082 5.1031 14.2082 6.87502Z" stroke="white"/>
</svg>
