<svg width="22" height="22" viewBox="0 0 22 22" fill="none" xmlns="http://www.w3.org/2000/svg">
<path fill-rule="evenodd" clip-rule="evenodd" d="M4.16134 1.83337H7.25967C8.55217 1.83337 9.58801 2.88754 9.58801 4.18096V7.30587C9.58801 8.60754 8.55217 9.65254 7.25967 9.65254H4.16134C2.87801 9.65254 1.83301 8.60754 1.83301 7.30587V4.18096C1.83301 2.88754 2.87801 1.83337 4.16134 1.83337ZM4.16134 12.3473H7.25967C8.55217 12.3473 9.58801 13.3932 9.58801 14.6948V17.8198C9.58801 19.1123 8.55217 20.1664 7.25967 20.1664H4.16134C2.87801 20.1664 1.83301 19.1123 1.83301 17.8198V14.6948C1.83301 13.3932 2.87801 12.3473 4.16134 12.3473ZM17.8381 1.83337H14.7398C13.4473 1.83337 12.4114 2.88754 12.4114 4.18096V7.30587C12.4114 8.60754 13.4473 9.65254 14.7398 9.65254H17.8381C19.1214 9.65254 20.1664 8.60754 20.1664 7.30587V4.18096C20.1664 2.88754 19.1214 1.83337 17.8381 1.83337ZM14.7398 12.3473H17.8381C19.1214 12.3473 20.1664 13.3932 20.1664 14.6948V17.8198C20.1664 19.1123 19.1214 20.1664 17.8381 20.1664H14.7398C13.4473 20.1664 12.4114 19.1123 12.4114 17.8198V14.6948C12.4114 13.3932 13.4473 12.3473 14.7398 12.3473Z" fill="white" fill-opacity="0.5"/>
</svg>
