<svg width="22" height="22" viewBox="0 0 22 22" fill="none" xmlns="http://www.w3.org/2000/svg">
<path d="M18.1748 5.83826L9.74469 8.57726C9.6458 8.64113 9.53217 8.67853 9.41469 8.68589L6.51894 9.62501H18.5626C18.7449 9.62501 18.9198 9.69745 19.0487 9.82638C19.1776 9.95531 19.2501 10.1302 19.2501 10.3125V17.1875C19.2501 18.0992 18.8879 18.9735 18.2432 19.6182C17.5986 20.2628 16.7242 20.625 15.8126 20.625H6.18756C5.27588 20.625 4.40154 20.2628 3.75688 19.6182C3.11222 18.9735 2.75006 18.0992 2.75006 17.1875V10.3125C2.75006 10.1668 2.79544 10.0306 2.87381 9.91789L2.60569 9.09014C2.32403 8.22313 2.3983 7.27974 2.81217 6.46749C3.22603 5.65524 3.94558 5.04064 4.81256 4.75889L13.9659 1.78476C14.8329 1.50311 15.7763 1.57738 16.5886 1.99124C17.4008 2.40511 18.0154 3.12466 18.2972 3.99164L18.6162 4.97201C18.6725 5.14541 18.6577 5.33409 18.5749 5.49654C18.4921 5.65899 18.3482 5.78191 18.1748 5.83826ZM13.0268 6.06514L14.7937 3.00439C14.6568 3.02019 14.5218 3.04967 14.3908 3.09239L12.6789 3.64789L10.8804 6.76226L13.0268 6.06514ZM16.1824 3.34401L16.1549 3.39489L14.9807 5.42989L17.0954 4.74239L16.9896 4.41651C16.8476 3.97902 16.5635 3.60152 16.1824 3.34401ZM10.7237 4.28314L8.57869 4.98026L6.77881 8.09464L8.92381 7.39751L10.7237 4.28314ZM4.01919 8.99251L4.82631 8.73126L6.62344 5.61551L5.23744 6.06651C4.71725 6.23557 4.28552 6.60432 4.0372 7.09168C3.78888 7.57903 3.74432 8.14506 3.91331 8.66526L4.01919 8.99251Z" fill="white" fill-opacity="0.5"/>
</svg>
