<svg width="22" height="22" viewBox="0 0 22 22" fill="none" xmlns="http://www.w3.org/2000/svg">
<path d="M12.0782 1C12.3722 1 12.6352 1.183 12.7342 1.457L13.4402 3.41397C13.6932 3.47697 13.9102 3.53997 14.0942 3.60597C14.2952 3.67797 14.5542 3.78697 14.8742 3.93597L16.5182 3.06598C16.6524 2.99488 16.806 2.96922 16.956 2.99284C17.106 3.01646 17.2443 3.08809 17.3502 3.19698L18.7962 4.69196C18.9881 4.89095 19.0421 5.18195 18.9341 5.43595L18.1632 7.24293C18.2912 7.47792 18.3932 7.67892 18.4712 7.84692C18.5552 8.02992 18.6592 8.28191 18.7832 8.60691L20.5801 9.3769C20.8501 9.4919 21.0171 9.7619 20.9991 10.0509L20.8671 12.1259C20.8581 12.2607 20.8097 12.3899 20.7279 12.4974C20.6462 12.605 20.5346 12.6861 20.4071 12.7309L18.7052 13.3359C18.6562 13.5709 18.6052 13.7718 18.5512 13.9418C18.4641 14.2044 18.3646 14.4627 18.2532 14.7158L19.1081 16.6058C19.1685 16.7386 19.1847 16.8872 19.1545 17.0299C19.1243 17.1726 19.0492 17.3019 18.9401 17.3988L17.3142 18.8508C17.2071 18.946 17.0735 19.0062 16.9312 19.0234C16.7889 19.0405 16.6448 19.0138 16.5182 18.9468L14.8422 18.0588C14.58 18.1976 14.3095 18.3202 14.0322 18.4258L13.3002 18.6998L12.6502 20.4998C12.6021 20.6316 12.5152 20.7458 12.401 20.8273C12.2867 20.9089 12.1505 20.954 12.0102 20.9568L10.1103 20.9998C9.96622 21.0035 9.82455 20.9626 9.70475 20.8825C9.58495 20.8025 9.4929 20.6873 9.44126 20.5528L8.67527 18.5258C8.41392 18.4365 8.15516 18.3398 7.89928 18.2358C7.69 18.1452 7.48388 18.0475 7.28129 17.9428L5.38131 18.7548C5.25612 18.8082 5.1181 18.8241 4.98406 18.8004C4.85002 18.7768 4.72573 18.7148 4.62632 18.6218L3.22034 17.3028C3.11566 17.205 3.04437 17.0768 3.01656 16.9363C2.98874 16.7958 3.00581 16.6501 3.06534 16.5198L3.88233 14.7398C3.77368 14.529 3.67294 14.3142 3.58034 14.0958C3.47224 13.8286 3.37219 13.5581 3.28034 13.2849L1.49036 12.7399C1.34486 12.6959 1.21796 12.6051 1.12936 12.4816C1.04075 12.3581 0.995409 12.2088 1.00037 12.0569L1.07037 10.1359C1.07535 10.0106 1.1145 9.88896 1.18359 9.78427C1.25268 9.67958 1.34908 9.59577 1.46236 9.5419L3.34034 8.63991C3.42734 8.32091 3.50334 8.07292 3.57034 7.89192C3.66468 7.65017 3.76944 7.41261 3.88433 7.17993L3.07034 5.45995C3.00857 5.32933 2.98981 5.18249 3.01676 5.04054C3.04372 4.89859 3.11499 4.76884 3.22034 4.66996L4.62432 3.34397C4.72274 3.25115 4.84589 3.18874 4.97895 3.16426C5.112 3.13977 5.2493 3.15426 5.37431 3.20598L7.27229 3.98997C7.48229 3.84997 7.67229 3.73697 7.84428 3.64597C8.04928 3.53697 8.32328 3.42297 8.66827 3.29997L9.32827 1.459C9.37706 1.32427 9.46625 1.20788 9.58366 1.12573C9.70106 1.04358 9.84096 0.999674 9.98426 1H12.0782ZM11.0242 8.01892C9.35727 8.01892 8.00628 9.3539 8.00628 11.0019C8.00628 12.6499 9.35727 13.9858 11.0242 13.9858C12.6902 13.9858 14.0412 12.6499 14.0412 11.0019C14.0412 9.3539 12.6912 8.01892 11.0242 8.01892Z" fill="white" fill-opacity="0.5"/>
</svg>
